<svg width="90" height="96" viewBox="0 0 90 96" fill="none" xmlns="http://www.w3.org/2000/svg">
<path d="M30.2965 47.549V46.4731C31.4897 46.4014 32.3845 46.258 32.9811 46.0428C33.5777 45.8276 33.9692 45.3972 34.1556 44.7517C34.3793 44.1062 34.4912 43.1379 34.4912 41.8468V15.1648C34.4912 13.8378 34.4912 12.7687 34.4912 12.1074C34.3048 11.4619 33.9051 10.7357 33.2713 10.5205C32.6747 10.2695 31.4524 10.0274 30.2965 9.99153V9.46255C36.0227 9.46255 39.9492 9.46255 45.7271 9.46255V9.85928C44.534 9.89514 43.3344 10.2695 42.7006 10.5205C42.2879 10.9172 41.9985 11.6143 41.8121 12.2599C41.6257 12.8695 41.5325 13.8378 41.5325 15.1648V41.8468C41.5325 43.1379 41.6257 44.1062 41.8121 44.7517C42.0358 45.3972 42.446 45.8276 43.0425 46.0428C43.6391 46.258 44.534 46.4014 45.7271 46.4731V47.549C44.795 47.4773 43.5645 47.4414 42.0358 47.4414C40.5444 47.4056 38.9411 47.3876 37.2259 47.3876C35.6226 47.3876 35.8521 47.4056 34.2116 47.4414C32.6083 47.4414 31.3033 47.4773 30.2965 47.549ZM4.73128 47.549V47.1523C5.92443 47.0806 6.9324 46.7555 7.75782 46.2266C8.3081 45.8298 8.40394 45.3972 8.59037 44.7517C8.81408 44.1062 8.92594 43.1379 8.92594 41.8468V15.1648C8.92594 13.8378 8.94452 12.8695 8.72081 12.2599C8.53438 11.6143 8.03296 11.314 7.62025 10.785C7.02367 10.534 5.88714 10.0274 4.73128 9.99153V9.46255C10.5092 9.46255 14.2982 9.46255 20.1619 9.46255V9.99153C18.9687 10.0274 17.7374 10.1238 17.1871 10.5205C16.6368 11.0495 16.273 11.5942 16.0866 12.2397C15.9001 12.8494 15.9672 13.8378 15.9672 15.1648V41.8468C15.9672 43.1379 16.0604 44.1062 16.2468 44.7517C16.4706 45.3972 16.7744 45.9621 17.1871 46.3588C17.7837 46.574 18.9687 47.0806 20.1619 47.1523V47.549C14.5733 47.549 10.5092 47.549 4.73128 47.549ZM14.1833 28.9361V27.8602H36.2752V28.9361H14.1833Z" fill="white"/>
<path d="M40.0406 27.9772C43.9672 26.7319 47.5345 27.283 50.8848 27.5805C54.4553 28.5062 56.3067 29.1674 59.2162 31.2833C61.7545 33.5005 64.3915 35.8774 65.8284 40.4082C67.2654 44.9391 66.7572 48.7709 65.9607 52.0457C65.1496 55.2748 64.163 58.071 61.5966 60.2449C59.0302 62.4189 56.1337 64.1571 52.2071 65.4024C48.3882 66.6136 44.8994 66.2118 41.4953 65.9314C38.057 65.0057 35.6765 64.2123 33.0317 62.3608C30.4933 60.1437 27.9083 57.4576 26.4714 52.9268C25.0344 48.3959 25.3584 44.741 26.1549 41.4661C27.0053 38.1743 28.2708 35.7796 30.7835 33.1347C33.4037 30.9437 35.8088 28.903 40.0406 27.9772ZM40.4373 28.6384C38.2858 29.3208 34.671 32.9698 34.0896 36.1764C32.8994 39.3502 32.5027 44.111 33.8251 50.1943C35.7701 56.327 37.5766 59.401 39.8852 61.6406C42.1939 63.8802 45.1982 65.9314 51.9426 65.1379C53.5296 63.6833 58.0128 59.2891 58.5549 56.1453C59.1508 52.9845 59.6128 49.6654 58.2904 43.0531C56.3067 35.5152 53.1934 32.994 50.8848 30.7544C48.6154 28.4519 44.6692 27.2111 40.4373 28.6384Z" fill="white"/>
<path fill-rule="evenodd" clip-rule="evenodd" d="M74.0274 85.6352V84.7095C73.2339 83.7838 71.118 81.1389 69.8647 79.4561L60.8029 68.1789H58.0258L69.1343 57.3348C70.4765 56.0492 74.0274 52.7063 76.4078 50.0614C76.4078 48.6067 73.7629 48.4745 72.9694 48.4745V48.0777H83.6813L83.6813 48.3422C82.1208 48.3422 80.5135 49.1056 79.3172 49.7969C78.1468 50.4626 76.9213 51.2001 76.0111 52.0451L64.7703 63.0214C71.118 70.6609 81.6976 85.1062 85.2682 85.6352H74.0274Z" fill="white"/>
<path d="M61.0676 48.0777V48.3422C60.0815 48.3776 59.0788 48.7559 58.5549 49.0034C58.0619 49.2156 57.5188 49.8216 57.3647 50.4581C57.3647 51.7806 57.3647 52.3235 57.3647 53.632L57.3365 80.0122C57.3365 81.2853 57.2106 82.2215 57.3647 82.8581C57.5496 83.4946 58.0619 84.2328 58.5549 84.445C59.0479 84.6572 60.6105 85.3 61.5965 85.3707V85.6352C56.8357 85.6352 50.8847 85.6352 46.2562 85.6352V85.3707C47.2422 85.3 48.6725 84.7894 49.1655 84.5773C49.8268 84.1805 49.959 83.5193 50.0913 82.8581C50.2761 82.2215 50.2518 81.2853 50.2518 80.0122V53.7007C50.2518 52.3922 50.2337 50.9143 50.0913 50.3259C49.9312 49.6647 49.6894 49.2156 49.1655 49.0034C48.6725 48.7559 47.2114 48.3776 46.2562 48.3422V48.0777C51.1492 48.0777 56.0423 48.0777 61.0676 48.0777Z" fill="white"/>
</svg>
