<?xml version="1.0" encoding="UTF-8"?>
<svg version="1.1" xmlns="http://www.w3.org/2000/svg" width="1080" height="1080">
<path d="M0 0 C1.56234375 -0.01160156 1.56234375 -0.01160156 3.15625 -0.0234375 C11.66493017 -0.00195093 11.66493017 -0.00195093 15.875 1.2890625 C21.76919084 2.99752361 27.94646758 2.19461628 34 1.875 C35.25167969 1.81828125 36.50335938 1.7615625 37.79296875 1.703125 C40.8624758 1.56253689 43.9313243 1.40769583 47 1.25 C47 7.85 47 14.45 47 21.25 C45.35 19.6 43.7 17.95 42 16.25 C40.06557546 15.08330214 40.06557546 15.08330214 38.1875 14.4375 C37.135625 14.045625 36.08375 13.65375 35 13.25 C35.28875 13.7140625 35.5775 14.178125 35.875 14.65625 C40.19506301 22.69636728 40.42497701 32.23811474 38.33984375 41.03515625 C35.03356188 49.37958193 28.73132477 54.26673295 20.91796875 58.20703125 C11.73622334 61.48885993 3.01480814 61.39977902 -6.609375 60.8203125 C-13.11821675 60.62938648 -16.6488416 61.60446895 -21.64990234 65.84863281 C-23.11563507 67.04570675 -23.11563507 67.04570675 -23 68.25 C-22.27194656 68.25586624 -21.54389313 68.26173248 -20.79377747 68.26777649 C-13.92269442 68.32575084 -7.0518882 68.39785476 -0.18112659 68.48571491 C3.35098666 68.53038664 6.88298544 68.56964938 10.4152832 68.59643555 C14.47897322 68.6274908 18.54204542 68.68227834 22.60546875 68.73828125 C23.8702153 68.74467117 25.13496185 68.7510611 26.43803406 68.75764465 C28.20930412 68.78733589 28.20930412 68.78733589 30.01635742 68.81762695 C31.05338303 68.82873001 32.09040863 68.83983307 33.15885925 68.85127258 C38.26081813 69.56728459 41.67479958 72.44977095 45 76.25 C47.85611113 84.8183334 46.31198171 93.53574206 42.53515625 101.53125 C36.9005271 111.51013521 28.11452913 118.00208229 17.12744141 121.15673828 C9.73533653 123.05676619 2.62551666 123.92378338 -5 123.25 C-5.88816406 123.17910156 -6.77632812 123.10820313 -7.69140625 123.03515625 C-19.35583549 121.52404387 -30.75279319 115.57303992 -38 106.25 C-39.51987178 103.95716485 -40.76649839 101.71700322 -42 99.25 C-45.465 100.24 -45.465 100.24 -49 101.25 C-48.18852883 95.46698394 -45.31228113 91.97176246 -42 87.25 C-37.38 88.24 -32.76 89.23 -28 90.25 C-28 90.91 -28 91.57 -28 92.25 C-30.5 93.875 -30.5 93.875 -33 95.25 C-26.80598728 103.56301707 -19.19190445 107.40354008 -9 109.25 C-6.03496346 109.53033194 -3.1020291 109.58482612 -0.125 109.5625 C0.66438965 109.55686035 1.4537793 109.5512207 2.26708984 109.54541016 C12.01523892 109.34286684 19.89262743 107.24705859 27 100.25 C30.23000547 96.38342411 31.88523285 93.43592718 32.375 88.375 C32.190192 85.34916626 32.190192 85.34916626 31 83.25 C29.96762711 83.24120064 29.96762711 83.24120064 28.91439819 83.23222351 C21.74393214 83.16823516 14.57391263 83.08380068 7.40380859 82.98754883 C4.72863786 82.95267998 2.05376362 82.92628119 -0.62158203 82.90356445 C-4.46937788 82.86998733 -8.31653489 82.81766721 -12.1640625 82.76171875 C-13.35802643 82.75532883 -14.55199036 82.7489389 -15.78213501 82.74235535 C-22.37985251 82.62582529 -27.58455553 82.43828902 -32.64453125 77.71484375 C-36.34783409 72.87206311 -37.67270736 69.90230636 -37.69921875 63.8046875 C-36.72906744 60.26011232 -35.11693317 59.46262774 -32 57.625 C-30.35149907 56.79617036 -28.68932201 55.99209503 -27 55.25 C-27.7425 54.528125 -28.485 53.80625 -29.25 53.0625 C-35.91107165 46.25004035 -39.60151657 40.12763057 -40.25 30.5625 C-40.02317491 21.26267115 -36.84426408 15.03724188 -30.3984375 8.3828125 C-21.69620374 0.64434404 -11.1791195 -0.08301326 0 0 Z M-23.0625 18.8125 C-26.57513239 23.32992795 -27.48076967 27.59171075 -27 33.25 C-25.45161947 38.49728956 -23.27075804 41.83339357 -19 45.25 C-12.74339918 48.11154611 -7.46549186 48.76512086 -0.625 48.6875 C0.303125 48.67992676 1.23125 48.67235352 2.1875 48.66455078 C9.51533788 48.4878054 16.06310312 47.88120841 21.66015625 42.71875 C25.97953987 37.80981263 26.28918137 34.33041608 26.21484375 28.01171875 C25.84392187 23.24368661 24.15993372 20.48023274 20.9375 17.0625 C9.11878136 9.77009914 -12.6727091 8.46451913 -23.0625 18.8125 Z " fill="#FFFFFF" transform="translate(213,496.75)"/>
<path d="M0 0 C-1.76498279 9.99297416 -4.58273711 19.68096865 -7.3046875 29.4453125 C-7.8307006 31.34314954 -8.35633878 33.24109054 -8.88162231 35.13912964 C-10.26130587 40.1215626 -11.64488475 45.10290427 -13.02966309 50.08392334 C-15.23902304 58.03203595 -17.44401465 65.98135612 -19.64599991 73.93151474 C-20.40846358 76.68127037 -21.17356084 79.43028286 -21.93893433 82.17922974 C-27.43691203 98.88360491 -27.43691203 98.88360491 -30 116 C-27.10949479 115.73920313 -27.10949479 115.73920313 -24 114 C-20.32554336 108.56996963 -18.16490082 102.15287601 -16 96 C-14.68 96 -13.36 96 -12 96 C-13.63233032 104.43370663 -15.62794249 113.81535595 -22 120 C-26.39242471 122.79517936 -30.79916546 124.18037576 -36 124 C-40.12254513 122.95121161 -42.5843763 121.62343555 -45 118 C-45.4140625 115.08203125 -45.4140625 115.08203125 -45.625 111.8125 C-45.69976563 110.72582031 -45.77453125 109.63914062 -45.8515625 108.51953125 C-45.90054688 107.68808594 -45.94953125 106.85664062 -46 106 C-46.61875 106.97839844 -46.61875 106.97839844 -47.25 107.9765625 C-52.3969734 115.76595528 -57.08165031 121.38338299 -66.4375 123.5625 C-71.86181682 124.29226246 -76.2215299 123.74016897 -81 121 C-85.66174909 117.11330944 -87.64074101 112.06623373 -88.3359375 106.1328125 C-88.59113452 86.48264163 -81.05788219 68.18858228 -67.80078125 53.78515625 C-59.38462071 45.41594779 -50.5433337 40.74358789 -38.69921875 39.8515625 C-34.37932626 40.08912533 -31.64007413 41.73353875 -28 44 C-27.88914062 43.05511719 -27.77828125 42.11023438 -27.6640625 41.13671875 C-26.8399042 35.35159341 -25.17549954 29.74837465 -23.640625 24.11914062 C-23.41632813 23.26126953 -23.19203125 22.40339844 -22.9609375 21.51953125 C-22.64842041 20.36094604 -22.64842041 20.36094604 -22.32958984 19.17895508 C-21.80814429 16.67686846 -21.80814429 16.67686846 -23 13 C-27.455 12.01 -27.455 12.01 -32 11 C-31.67 9.35 -31.34 7.7 -31 6 C-29.36804688 5.85304688 -29.36804688 5.85304688 -27.703125 5.703125 C-19.48090313 4.89093792 -12.01252565 3.74062177 -4.22265625 0.8046875 C-2 0 -2 0 0 0 Z M-54.2109375 55.4609375 C-64.04490941 69.41744785 -70.17368844 85.94997226 -70.1875 103.0625 C-70.19974609 103.86494141 -70.21199219 104.66738281 -70.22460938 105.49414062 C-70.31650358 111.05634568 -70.31650358 111.05634568 -68 116 C-66.30785336 117.19648634 -66.30785336 117.19648634 -64 117 C-51.10804295 111.79363273 -45.33969977 96.99250068 -40.14794922 85.03808594 C-36.76530967 76.99741888 -34.20270052 68.73112577 -31.9375 60.3125 C-31.69684814 59.46268555 -31.45619629 58.61287109 -31.20825195 57.73730469 C-29.93721939 52.80792275 -29.93721939 52.80792275 -31.25390625 47.98046875 C-33.4074835 45.53782072 -34.40730582 45.0846706 -37.625 44.625 C-44.66650406 45.40738934 -49.8362945 50.12746863 -54.2109375 55.4609375 Z " fill="#FFFEFF" transform="translate(804,460)"/>
<path d="M0 0 C2.45243461 1.90063682 3.62927427 3.25854855 5 6 C5.71566113 13.20633332 4.38539109 19.26343087 2.04296875 26.03125 C1.73933914 26.94781372 1.43570953 27.86437744 1.12287903 28.80871582 C0.1583219 31.7106809 -0.82640395 34.60529195 -1.8125 37.5 C-2.78312143 40.39614278 -3.7495742 43.29365376 -4.71574402 46.19128418 C-5.31541972 47.98456762 -5.91846149 49.77673057 -6.52558899 51.56750488 C-10.85904733 63.01629541 -10.85904733 63.01629541 -12 75 C-8.04125632 74.76713272 -5.63887771 74.51110217 -2.5 72 C-1.675 71.01 -0.85 70.02 0 69 C0.52207031 68.41605469 1.04414062 67.83210937 1.58203125 67.23046875 C14.82585657 51.59498197 21.96905939 29.12263179 27.09814453 9.6262207 C27.32099121 8.78792725 27.54383789 7.94963379 27.7734375 7.0859375 C27.96341309 6.3439209 28.15338867 5.6019043 28.34912109 4.83740234 C29 3 29 3 31 1 C33.72469786 0.53340269 36.38179802 0.16400746 39.125 -0.125 C39.87910156 -0.21136719 40.63320313 -0.29773438 41.41015625 -0.38671875 C43.27257127 -0.59889261 45.13618931 -0.80045763 47 -1 C46.4199205 5.89166673 44.67519615 12.29094437 42.77650452 18.92883492 C42.20790801 20.91681298 41.64651824 22.90670906 41.08679199 24.89720154 C39.89765159 29.12080721 38.69909063 33.34171058 37.5 37.5625 C36.10944133 42.46171451 34.72283647 47.36201018 33.34303284 52.26426506 C32.79237012 54.21452262 32.23615604 56.16313696 31.67956543 58.11170959 C31.34251587 59.30662521 31.00546631 60.50154083 30.65820312 61.73266602 C30.36143677 62.77665054 30.06467041 63.82063507 29.75891113 64.89625549 C28.93903805 68.24931816 28.43640819 71.57766671 28 75 C32.10308537 74.16073254 33.66594472 73.47160746 36.125 70 C38.08670484 66.17346464 39.45103053 62.12287344 40.77734375 58.0390625 C42 56 42 56 44.62890625 55.2109375 C45.41136719 55.14132812 46.19382812 55.07171875 47 55 C40.5732601 76.00313295 40.5732601 76.00313295 33.6875 80.4375 C29.30130952 82.56875091 24.81467812 83.72298595 20.0078125 82.48828125 C16.56375202 81.1378094 15.07721442 80.11582162 13 77 C12.15322148 70.21331922 13.43057238 63.5859909 15 57 C14.49210938 57.85722656 13.98421875 58.71445312 13.4609375 59.59765625 C1.6685652 79.29480559 1.6685652 79.29480559 -10.26171875 82.6328125 C-15.86413013 83.55188173 -21.0275094 82.82083318 -26 80 C-29.35417987 75.62940198 -29.40039606 71.32229356 -29 66 C-28.38820449 63.318619 -27.72822763 60.81246234 -26.89453125 58.20703125 C-26.56048027 57.11887871 -26.56048027 57.11887871 -26.21968079 56.00874329 C-25.49482372 53.66744545 -24.75074232 51.33311947 -24 49 C-23.74764587 48.2144574 -23.49529175 47.42891479 -23.23529053 46.61956787 C-21.14064527 40.12754052 -19.00493092 33.64903518 -16.85229492 27.17602539 C-16.04608902 24.74793127 -15.24716627 22.31753711 -14.44921875 19.88671875 C-14.07901863 18.7836866 -14.07901863 18.7836866 -13.70133972 17.65837097 C-12.57940309 14.22616295 -12 11.65347717 -12 8 C-14.84534204 7.70371263 -14.84534204 7.70371263 -18 9 C-21.7429784 14.35453854 -23.84414697 20.87283876 -26 27 C-27.32 27 -28.64 27 -30 27 C-28.11485578 17.26008819 -26.19252238 8.69765588 -18.0703125 2.34375 C-12.40394774 -1.33404147 -6.41329059 -1.74907925 0 0 Z " fill="#FFFEFF" transform="translate(662,501)"/>
<path d="M0 0 C5.69894229 4.33800085 8.22453824 9.51153846 9.83203125 16.39453125 C11.50847242 35.74980656 5.75027582 54.75767522 -6.234375 70.02734375 C-13.35801587 78.32793398 -21.82338127 85.52047478 -33.09423828 86.57470703 C-48.66932207 87.56613947 -48.66932207 87.56613947 -54.59375 83.78515625 C-60.9973031 78.12841951 -63.65664485 72.04306247 -64.41796875 63.6328125 C-65.18101564 44.62817599 -58.50134592 25.8206743 -46.09375 11.4375 C-34.83499243 -0.50637466 -15.78748373 -8.54274932 0 0 Z M-27.54296875 8.58203125 C-40.64784069 24.23829419 -46.16485745 48.42098259 -46.48046875 68.33203125 C-46.49827393 69.05455078 -46.5160791 69.77707031 -46.53442383 70.52148438 C-46.52765921 74.97156553 -46.02141846 77.92162595 -43.16796875 81.39453125 C-39.49540702 82.48269769 -37.25561925 82.82959145 -33.66796875 81.39453125 C-32.43046875 80.40453125 -32.43046875 80.40453125 -31.16796875 79.39453125 C-30.64589844 78.9871875 -30.12382812 78.57984375 -29.5859375 78.16015625 C-18.0015479 68.01400915 -13.85007248 51.72426769 -10.16796875 37.39453125 C-9.89984375 36.38777344 -9.63171875 35.38101563 -9.35546875 34.34375 C-8.03783367 28.46014336 -7.94478694 22.52589664 -7.85546875 16.51953125 C-7.83758301 15.69767334 -7.81969727 14.87581543 -7.80126953 14.02905273 C-7.80796728 9.37172362 -8.02972108 6.10667143 -11.16796875 2.39453125 C-18.65107074 -0.00570901 -22.43586607 3.45181951 -27.54296875 8.58203125 Z " fill="#FFFFFF" transform="translate(390.16796875,499.60546875)"/>
<path d="M0 0 C5.28184496 5.15608675 5.88121342 12.64534561 6.4140625 19.75 C6.53207367 21.6606644 6.53207367 21.6606644 7.625 23.5625 C7.9653125 22.95664062 8.305625 22.35078125 8.65625 21.7265625 C20.60346573 1.07313106 20.60346573 1.07313106 31.73046875 -2.0234375 C35.88662086 -2.72522679 38.94743195 -2.49261156 42.625 -0.4375 C44.99540308 1.93290308 44.96965793 2.62552753 45.0625 5.875 C44.95552489 9.36576664 44.64232983 10.53419462 42.75 13.625 C38.35539482 16.34965521 34.67038716 16.474706 29.625 15.5625 C27.29820145 14.45382094 25.65870351 13.18946281 23.625 11.5625 C22.965 11.5625 22.305 11.5625 21.625 11.5625 C20.06586757 13.67846544 18.64639113 15.77992063 17.25 18 C16.86328125 18.59232422 16.4765625 19.18464844 16.078125 19.79492188 C14.87040118 21.68958928 13.73479111 23.60887923 12.625 25.5625 C12.22812988 26.25867432 11.83125977 26.95484863 11.42236328 27.67211914 C8.3203565 33.74357406 8.36352309 38.46286671 9.25 45.125 C9.35828125 46.08011475 9.4665625 47.03522949 9.578125 48.01928711 C9.80057387 49.95165001 10.03383071 51.88280191 10.27832031 53.8125 C10.59584734 56.33124962 10.87964231 58.85066257 11.1484375 61.375 C12.01183295 69.67714888 12.01183295 69.67714888 14.625 77.5625 C17.92202607 77.28774783 19.34441215 76.83483527 21.75 74.5 C24.52622861 70.15057518 26.625 65.77720759 26.625 60.5625 C24.975 59.9025 23.325 59.2425 21.625 58.5625 C25.02719265 55.81457517 29.10964588 52.5625 33.625 52.5625 C34.9140625 54.2421875 34.9140625 54.2421875 36.25 56.4375 C36.69601562 57.15679688 37.14203125 57.87609375 37.6015625 58.6171875 C38.625 60.5625 38.625 60.5625 38.625 62.5625 C36.645 62.5625 34.665 62.5625 32.625 62.5625 C32.26148438 63.56410156 31.89796875 64.56570313 31.5234375 65.59765625 C25.50533524 81.7079643 25.50533524 81.7079643 17.3125 86.5 C11.60659845 88.14407333 6.93582544 88.39090912 1.3125 86.375 C-3.03900072 83.44026696 -5.28638179 80.65969648 -6.5 75.5625 C-7.63112581 69.59379151 -8.50167962 63.5735456 -9.375 57.5625 C-9.76429688 58.28953125 -10.15359375 59.0165625 -10.5546875 59.765625 C-16.68934271 70.7910422 -24.02660625 82.90976658 -36.375 87.5625 C-40.59833491 88.33821458 -43.91853365 88.1814982 -47.875 86.5 C-50.14845954 83.5634481 -50.31169911 81.23395172 -50.375 77.5625 C-48.79935501 73.91363792 -46.90750338 71.42687678 -43.375 69.5625 C-36.7184319 68.82288132 -32.78818526 70.95370983 -27.375 74.5625 C-24.50282502 71.37728143 -21.88413834 68.03754113 -19.375 64.5625 C-18.94783691 63.97259277 -18.52067383 63.38268555 -18.08056641 62.77490234 C-9.9752436 51.10142626 -9.58629167 41.87897975 -11.94335938 28.09765625 C-12.33678345 25.7869574 -12.66296622 23.48181889 -12.953125 21.15625 C-13.75089719 14.76759167 -13.75089719 14.76759167 -15.375 8.5625 C-17.17149965 7.4671469 -17.17149965 7.4671469 -19.375 7.5625 C-23.56993425 10.82714082 -25.16065384 15.04074067 -27.125 19.8125 C-27.44082031 20.55757812 -27.75664062 21.30265625 -28.08203125 22.0703125 C-28.85502817 23.89739612 -29.61621095 25.72947027 -30.375 27.5625 C-31.695 27.5625 -33.015 27.5625 -34.375 27.5625 C-32.51190819 17.40018104 -29.92938103 7.3646892 -21.41015625 0.8359375 C-14.44622309 -3.52153315 -7.31860801 -3.11718489 0 0 Z " fill="#FFFFFF" transform="translate(437.375,498.4375)"/>
<path d="M0 0 C4.58732698 3.84055282 7.44700053 8.15529461 8.30297852 14.10644531 C8.43955322 16.41315373 8.4672283 18.68945069 8.4375 21 C8.42992676 21.83088135 8.42235352 22.6617627 8.41455078 23.51782227 C7.96370102 40.69453992 1.13131846 56.72598691 -10.94140625 68.96875 C-19.03850553 76.44787105 -27.5822681 79.77619029 -38.64453125 80.0703125 C-46.12267661 79.67974884 -51.13671768 76.86328232 -56.375 71.625 C-61.71048463 63.00614021 -60.94875649 51.86067302 -59.3828125 42.1875 C-55.93709554 27.79477074 -49.07898998 11.31066935 -36.30029297 2.87841797 C-25.46854913 -3.54441038 -11.36309003 -7.57539335 0 0 Z M-27 8 C-38.53420137 23.73091783 -45.74428173 47.46404459 -44 67 C-42.61766625 71.34607861 -42.61766625 71.34607861 -40 75 C-36.51475633 75.56901938 -34.04079381 75.63848697 -30.96875 73.75390625 C-15.80679633 61.12866406 -9.83695247 39.00762394 -8 20 C-7.89153076 17.77259687 -7.82594995 15.5425021 -7.8125 13.3125 C-7.79832031 12.23613281 -7.78414062 11.15976562 -7.76953125 10.05078125 C-8.00502601 6.93346931 -8.57628027 4.77250684 -10 2 C-17.37140775 -1.68570387 -22.28001238 2.63462632 -27 8 Z " fill="#FFFEFF" transform="translate(908,504)"/>
<path d="M0 0 C1.68609375 -0.04253906 1.68609375 -0.04253906 3.40625 -0.0859375 C7.11760284 0.46701658 8.21273773 1.47276627 10.5 4.375 C12.03266582 7.44033164 11.60276471 10.64254272 11.5625 14 C11.55798828 14.70640625 11.55347656 15.4128125 11.54882812 16.140625 C11.53703875 17.88545275 11.51910324 19.630237 11.5 21.375 C12.17095703 20.28832031 12.17095703 20.28832031 12.85546875 19.1796875 C23.06726427 2.84952409 23.06726427 2.84952409 31.5 0.375 C37.13573264 -0.40814726 41.7406614 -0.6944019 46.6875 2.3125 C49.07845921 6.3523966 49.77310689 9.69907906 49.5 14.375 C47.81652852 19.52444219 45.06834734 22.49863315 40.5 25.375 C36.37832692 26.13350234 32.97955466 26.18836774 29.26171875 24.14453125 C27.00415709 21.87695823 26.93264097 20.72572849 26.9375 17.5625 C27.11702083 12.23151184 28.69624913 9.98856332 32.5 6.375 C11.5200143 18.15133049 3.84268709 51.62315164 -2.29589844 73.16845703 C-3.76976434 78.55461176 -5.13556151 83.95859265 -6.5 89.375 C-12.77 89.375 -19.04 89.375 -25.5 89.375 C-21.88830673 73.16503809 -17.30889965 57.25329727 -12.75250244 41.28778076 C-11.48234469 36.83649227 -10.21889414 32.38333642 -8.95703125 27.9296875 C-8.62476028 26.772341 -8.29248932 25.61499451 -7.95014954 24.4225769 C-6.43663485 19.07566976 -5.07845977 13.90692569 -4.5 8.375 C-7.33538907 8.24555003 -7.33538907 8.24555003 -10.5 9.375 C-15.81047995 14.90286802 -17.97739834 23.33318431 -20.5 30.375 C-22.15 30.375 -23.8 30.375 -25.5 30.375 C-23.14193569 19.86713447 -19.92508749 8.52179619 -10.5 2.375 C-7.0016277 0.21741356 -4.08199522 0.04681187 0 0 Z M9.5 23.375 C10.5 26.375 10.5 26.375 10.5 26.375 Z " fill="#FFFFFF" transform="translate(291.5,496.625)"/>
<path d="M0 0 C-0.59954773 2.48036242 -1.2045316 4.95919973 -1.8125 7.4375 C-1.97814453 8.12521484 -2.14378906 8.81292969 -2.31445312 9.52148438 C-3.62152265 14.82374754 -5.25931345 19.77794034 -7 25 C-0.73 25 5.54 25 12 25 C11.67 26.32 11.34 27.64 11 29 C4.73 29.33 -1.54 29.66 -8 30 C-10.22495171 37.71701805 -12.44312981 45.43588596 -14.64957428 53.15821266 C-15.67446935 56.74422719 -16.70226457 60.32935603 -17.73681641 63.91259766 C-18.73579638 67.37304097 -19.72698922 70.83562925 -20.71290588 74.29981613 C-21.0897027 75.61863279 -21.46926097 76.93666382 -21.85166931 78.25386429 C-22.38831683 80.10412825 -22.9140962 81.95753377 -23.43945312 83.81103516 C-23.7414563 84.86360504 -24.04345947 85.91617493 -24.35461426 87.00064087 C-25.02302455 90.10700406 -25.18946024 92.83232154 -25 96 C-23.90801858 97.29956335 -23.90801858 97.29956335 -21.25 97.3125 C-17.01097376 96.90490132 -15.87333489 96.1680359 -13 93 C-11.11890179 89.41721468 -9.56311383 85.72953475 -8 82 C-7.34586488 80.66047416 -6.68410232 79.32447206 -6 78 C-4.68 78.33 -3.36 78.66 -2 79 C-8.68513562 99.17784524 -8.68513562 99.17784524 -17.375 104.4375 C-24.42515157 105.94824676 -30.12668184 106.5629322 -37 104 C-40.64431159 100.35568841 -42.13720235 97.12297941 -42.24609375 92.00390625 C-42.17219473 86.35688392 -40.68155058 81.31379671 -39.0625 75.9375 C-38.42659523 73.75014184 -37.79120621 71.5626337 -37.15625 69.375 C-36.81207031 68.20324219 -36.46789062 67.03148437 -36.11328125 65.82421875 C-34.25360961 59.43608354 -32.46748387 53.02737368 -30.67404175 46.62039185 C-29.69333167 43.11975751 -28.70793777 39.62044362 -27.72265625 36.12109375 C-27.39015869 34.9395874 -27.05766113 33.75808105 -26.71508789 32.54077148 C-26.47910889 31.70231689 -26.24312988 30.8638623 -26 30 C-29.96 29.67 -33.92 29.34 -38 29 C-38 27.68 -38 26.36 -38 25 C-33.38 25 -28.76 25 -24 25 C-23.73445312 23.92621094 -23.46890625 22.85242188 -23.1953125 21.74609375 C-22.83860579 20.3098799 -22.48183134 18.87368288 -22.125 17.4375 C-21.86396484 16.38079102 -21.86396484 16.38079102 -21.59765625 15.30273438 C-20.48705185 10.83975002 -19.28798784 6.41512948 -18 2 C-15.93827387 1.66191314 -13.8755797 1.32972639 -11.8125 1 C-10.66394531 0.814375 -9.51539063 0.62875 -8.33203125 0.4375 C-5.49584607 0.06510523 -2.85280436 -0.08596021 0 0 Z " fill="#FFFEFF" transform="translate(623,478)"/>
<path d="M0 0 C3.07197919 3.45597658 3.46145644 6.59287062 3.30078125 11.06640625 C2.7998267 14.28682835 1.28310529 16.71689471 -1 19 C-8.32529205 19.47259949 -8.32529205 19.47259949 -10.734375 17.78515625 C-13.19274848 14.31763564 -12.49098775 10.06009105 -12 6 C-10.5 2.375 -10.5 2.375 -9 0 C-14.45210405 -0.33380229 -18.30038242 0.10792764 -23 3 C-25.76741639 6.83392902 -26.33730654 10.93185408 -25.8125 15.5625 C-24.25333677 21.9767791 -20.18677428 26.99449243 -16.48828125 32.3359375 C-10.09917545 41.62613333 -7.54426499 49.61505359 -9 61 C-10.70389942 67.30442786 -14.68654752 71.39001105 -20 75 C-27.98885082 79.45532065 -36.92576589 79.82066394 -45.70703125 77.7265625 C-50.22133433 76.29613597 -53.69419557 74.4321726 -56.9375 70.875 C-58.49668572 66.65602689 -58.7365053 62.44069371 -58 58 C-56.36345749 55.32202134 -55.56518198 54.22309815 -52.625 53.0625 C-49.11247795 52.97886852 -47.68486404 53.75051932 -45 56 C-42.02036378 61.4175204 -43.22448479 67.11027639 -44 73 C-38.96103417 73.3585035 -35.12237862 73.54114683 -30.5 71.3125 C-26.6896537 67.78792967 -26.14458521 65.42175456 -25.625 60.3125 C-26.00395046 50.55001428 -31.98043966 42.4504873 -37.11450195 34.50830078 C-41.31557556 27.90609941 -43.81616244 22.02559729 -43 14 C-41.29408745 7.21953746 -38.83007865 2.97225586 -32.94921875 -0.88671875 C-23.12228282 -6.49929739 -9.36515474 -6.94758347 0 0 Z " fill="#FFFEFF" transform="translate(572,505)"/>
<path d="M0 0 C2.42358398 2.31567383 2.42358398 2.31567383 3.20849609 4.89428711 C3.43546309 17.77188991 -1.6096564 29.28386512 -6.01391602 41.19067383 C-7.22347916 44.50689883 -8.42653227 47.82526225 -9.62086487 51.14700317 C-10.36103628 53.20080411 -11.11063638 55.25124015 -11.87120056 57.2975769 C-13.83548935 62.69626813 -15.12377294 67.58219493 -15.57641602 73.31567383 C-12.50658323 72.64031061 -11.02164133 72.21697127 -8.57641602 70.31567383 C-6.13810568 66.15458441 -4.37723561 61.78148341 -2.57641602 57.31567383 C-1.92632461 55.97418086 -1.26763172 54.63644749 -0.57641602 53.31567383 C0.74358398 53.31567383 2.06358398 53.31567383 3.42358398 53.31567383 C0.81806403 64.05357425 -1.80958895 72.19483172 -10.88891602 79.06567383 C-15.91066036 81.40136887 -20.07067016 81.61188613 -25.38891602 80.56567383 C-28.42973941 79.37319407 -29.57315147 78.75643293 -31.57641602 76.31567383 C-35.30650206 61.39532966 -25.420433 43.00098904 -20.41357422 29.10961914 C-19.46894627 26.48229075 -18.53222095 23.85223858 -17.59594727 21.22192383 C-17.30742386 20.43015747 -17.01890045 19.63839111 -16.72163391 18.82263184 C-15.11295101 14.29765245 -14.08185182 10.0949162 -13.57641602 5.31567383 C-17.62976501 6.14476794 -19.22453704 6.81451286 -21.63891602 10.25317383 C-22.31213731 11.59393523 -22.95396269 12.95060243 -23.57641602 14.31567383 C-24.0237207 15.27473633 -24.47102539 16.23379883 -24.93188477 17.22192383 C-26.16882352 19.91061984 -27.38171013 22.60800025 -28.57641602 25.31567383 C-29.89641602 25.31567383 -31.21641602 25.31567383 -32.57641602 25.31567383 C-29.99123823 14.66160782 -27.41244305 6.10089275 -18.07641602 -0.43432617 C-12.16247819 -3.39129509 -5.61625328 -3.67161294 0 0 Z " fill="#FFFEFF" transform="translate(835.576416015625,502.684326171875)"/>
<path d="M0 0 C2.50160818 1.87620613 3.61945652 3.23891303 5 6 C5.25455752 9.97746125 4.95902031 13.55413758 2.72265625 16.92578125 C-0.65322107 20.25399912 -3.44771678 21.39422367 -8.1875 21.5625 C-12.05404593 21.47116427 -14.19870813 20.71414056 -17 18 C-18.10582479 13.50297919 -18.37348965 11.14243894 -16.9375 6.75 C-12.58623573 0.574012 -7.31739119 -1.41896179 0 0 Z " fill="#FFFEFF" transform="translate(844,465)"/>
</svg>
